<?xml version="1.0" encoding="utf-8"?>
<!-- Generator: Adobe Illustrator 13.0.0, SVG Export Plug-In . SVG Version: 6.00 Build 14948)  -->
<!DOCTYPE svg PUBLIC "-//W3C//DTD SVG 1.1//EN" "http://www.w3.org/Graphics/SVG/1.1/DTD/svg11.dtd" [
	<!ENTITY ns_flows "http://ns.adobe.com/Flows/1.0/">
	<!ENTITY ns_extend "http://ns.adobe.com/Extensibility/1.0/">
	<!ENTITY ns_ai "http://ns.adobe.com/AdobeIllustrator/10.0/">
	<!ENTITY ns_graphs "http://ns.adobe.com/Graphs/1.0/">
	<!ENTITY ns_vars "http://ns.adobe.com/Variables/1.0/">
	<!ENTITY ns_imrep "http://ns.adobe.com/ImageReplacement/1.0/">
	<!ENTITY ns_sfw "http://ns.adobe.com/SaveForWeb/1.0/">
	<!ENTITY ns_custom "http://ns.adobe.com/GenericCustomNamespace/1.0/">
	<!ENTITY ns_adobe_xpath "http://ns.adobe.com/XPath/1.0/">
]>
<svg version="1.1"
	 xmlns:x="&ns_extend;" xmlns:i="&ns_ai;" xmlns:graph="&ns_graphs;" i:viewOrigin="156.5 545.5" i:rulerOrigin="0 0" i:pageBounds="0 792 612 0"
	 xmlns="http://www.w3.org/2000/svg" xmlns:xlink="http://www.w3.org/1999/xlink" xmlns:a="http://ns.adobe.com/AdobeSVGViewerExtensions/3.0/"
	 x="0px" y="0px" width="300px" height="300px" viewBox="0 0 300 300" enable-background="new 0 0 300 300" xml:space="preserve">
<metadata><?xpacket begin="﻿" id="W5M0MpCehiHzreSzNTczkc9d"?>
<x:xmpmeta xmlns:x="adobe:ns:meta/" x:xmptk="Adobe XMP Core 4.1-c036 46.277092, Fri Feb 23 2007 14:17:08        ">
   <rdf:RDF xmlns:rdf="http://www.w3.org/1999/02/22-rdf-syntax-ns#">
      <rdf:Description rdf:about=""
            xmlns:xap="http://ns.adobe.com/xap/1.0/"
            xmlns:xapGImg="http://ns.adobe.com/xap/1.0/g/img/">
         <xap:Thumbnails>
            <rdf:Alt>
               <rdf:li rdf:parseType="Resource">
                  <xapGImg:width>236</xapGImg:width>
                  <xapGImg:height>256</xapGImg:height>
                  <xapGImg:format>JPEG</xapGImg:format>
                  <xapGImg:image>/9j/4AAQSkZJRgABAgEASABIAAD/7QAsUGhvdG9zaG9wIDMuMAA4QklNA+0AAAAAABAASAAAAAEA&#xA;AQBIAAAAAQAB/+4ADkFkb2JlAGTAAAAAAf/bAIQABgQEBAUEBgUFBgkGBQYJCwgGBggLDAoKCwoK&#xA;DBAMDAwMDAwQDA4PEA8ODBMTFBQTExwbGxscHx8fHx8fHx8fHwEHBwcNDA0YEBAYGhURFRofHx8f&#xA;Hx8fHx8fHx8fHx8fHx8fHx8fHx8fHx8fHx8fHx8fHx8fHx8fHx8fHx8fHx8f/8AAEQgBAADsAwER&#xA;AAIRAQMRAf/EAaIAAAAHAQEBAQEAAAAAAAAAAAQFAwIGAQAHCAkKCwEAAgIDAQEBAQEAAAAAAAAA&#xA;AQACAwQFBgcICQoLEAACAQMDAgQCBgcDBAIGAnMBAgMRBAAFIRIxQVEGE2EicYEUMpGhBxWxQiPB&#xA;UtHhMxZi8CRygvElQzRTkqKyY3PCNUQnk6OzNhdUZHTD0uIIJoMJChgZhJRFRqS0VtNVKBry4/PE&#xA;1OT0ZXWFlaW1xdXl9WZ2hpamtsbW5vY3R1dnd4eXp7fH1+f3OEhYaHiImKi4yNjo+Ck5SVlpeYmZ&#xA;qbnJ2en5KjpKWmp6ipqqusra6voRAAICAQIDBQUEBQYECAMDbQEAAhEDBCESMUEFURNhIgZxgZEy&#xA;obHwFMHR4SNCFVJicvEzJDRDghaSUyWiY7LCB3PSNeJEgxdUkwgJChgZJjZFGidkdFU38qOzwygp&#xA;0+PzhJSktMTU5PRldYWVpbXF1eX1RlZmdoaWprbG1ub2R1dnd4eXp7fH1+f3OEhYaHiImKi4yNjo&#xA;+DlJWWl5iZmpucnZ6fkqOkpaanqKmqq6ytrq+v/aAAwDAQACEQMRAD8A9U4q7FXYq7FXYq7FXYq7&#xA;FXYq7FXYq7FXYq7FXYq7FXhn59edptM/Mv8AK7QYpzFBPrEV5qA5cVKGaO2iLGvQepKTXbFXueKu&#xA;xV2KuxV2KuxV2KuxV2KuxV2KrJpoYYzJNIsUYoC7kKoqaDc+JOKr8VdirsVdirsVdirsVdirsVdi&#xA;rsVdirsVdirsVdirsVfFH/OTmuyv/wA5BWYdqR6MmnRR1GwHP60TQdd5sVfa+KuxV2KuxV2KuxV2&#xA;KuxV2KuxVIPPHnny55J8vz67r9z6FnD8KItGlmkP2YoUqOTtT+JoKnFXgf5Z6n5p/PT8wz5o1+M2&#xA;vkTyvN6ml6OPihkvesIkJp6rovxux2GwAAbFX03irsVdirsVdirsVdirsVdirsVdirsVdirsVdir&#xA;sVdir4C/5yhZk/PjzK6kqymxKkdQRp9vir7y0fUU1PSLHUo14pe28Vyi1rQSoHArQV+14Yqi8Vdi&#xA;rsVdirsVdirsVdiqC1vWtM0PSLvV9VuFtdOsYmnuZ36KiCp9yT0AG5OwxV8F+ePOfm788PzMs7Gz&#xA;RlguJvqmhabU8IISatLJSo5cRzlfwFOgGKvuHyF5K0nyV5T0/wAt6WP9Hso6PMRRppWPKSV+vxOx&#xA;J9unQYqyDFXYq7FXYq7FXYq7FXYq7FXYq7FXYq7FXYq7FXYq7FXwD/zlJ/5PbzN/0Y/90+3xV9d/&#xA;84++Yl178n/LV16gea2tRYTgdVazJgAb3KRq301xV6HirsVdirsVdirsVdirsVfGv/OWH5zfp7V2&#xA;8jaHPXRtLk/3LTJ0uLxD/d17pAfvev8AKDirM/8AnDj8skstHufPuoRf6XqPO10cMBVLZGpLKteh&#xA;kkXiPZT2bFX0virsVdirsVdirsVdirsVdirsVdirsVdirsVdirsVdirsVfBn/OWMRT87dXYmvq29&#xA;m49qWyL/AMa4q9I/5wp88hW1nyTdSgcv9yemqxAqaLFcItdyaCNqezHxxV9V4q7FXYq7FXYq7FXY&#xA;q8i/5yS/Nv8AwF5La106bh5l1sPb6dxNHgjpSW526FAaJ/lEHscVfC2i6Vea1rdjpVqC95qVzFbQ&#xA;jqTJO4RfxbFX6beXtDsNB0LT9F09OFlptvHa242rwiUKCaftGlSfHFUwxV2KuxV2KuxV2KuxV2Ku&#xA;xV2KuxV2KuxV2KsJ86/nR+WnkyR7fXtbhivkFTYQBri4r2DRxByle3OmKsGi/wCcwvyeeXgzajEt&#xA;R+9a1BXf/Vdm2+WKvTfKH5i+SPOMDTeWtZt9S4DlJDGxWZF2FXhkCSqN+rLirIsVfFP/ADmfpa23&#xA;5oWF6leN/pULPX/fkU0sZp7cAuKvIfIHm+98necdJ8yWdTJp06ySRA09SE/DNFX/AC42ZfpxV+le&#xA;l6nZapptrqdhKJ7K9hS4tpl6PHKodG+kHFUTirsVdirsVdiqld3VtaWs13cyLDbW6NLPK5oqIgLM&#xA;zHwAFcVfnL+cH5iXfn/z3qGvyFlsq/V9LgYn91aREiMUPQtUu3+UxxVk/wDzix5eXWfzl0p5IzJB&#xA;pUc+oygdAYk4RMflNKmKvvjFXYq7FXYq7FXYq7FXYq7FXYq7FXYq7FXYq+a/+cmv+chb3y/PJ5K8&#xA;o3Po6txH6W1SJvjtwwqIYSPsyFTVm6r236KvkGSSSWRpJGLyOSzuxJYsTUkk9ScVW4qjNJ1fVNI1&#xA;CDUdLupbK/tmDwXMDFHVh4EYq+5/+cdfzw/5WLos2n6uVj81aWoa8CKES4hJ4rcIo6Gu0gGwNKbG&#xA;gVef/wDOcGhc9N8r68kZ/czXFjPMOn71VliU/wDIqQj6cVfJmKvsz/nDn8w/0t5SuvJ15IDe6Cxm&#xA;sQT8TWU7EkdN/SlYitejKO2KvojFXYq7FXYq7FXhP/OXfn8+X/y9j8v2knHUPMshgehoVs4aNOdj&#xA;X4yyJ0oQWxV8Q4q+o/8AnB/QuV95o15tvSit7GHbr6rNLJv7ekn34q+scVdirsVdirsVdirsVdir&#xA;sVdirsVdirsVQOvatFo+hajq8y84tOtZruRAaErBG0hFaHqFxV+Yusarfavqt5qt/IZr2/mkubmU&#xA;7lpJWLsfvOKoPFXYq7FWdfkj5suPK35peXtSjkMcEl3HaXvcG2umEUtR34huQ9wMVfZH/OTPlg6/&#xA;+TmtrGjPc6YI9Stwu9PqzVlJFP8AfDSYq/P3FWW/lX58uvIvnrS/McPJobaThfQr/u21k+GZN+/E&#xA;1X/KAxV+j+m6jY6np9tqNhMtxY3kST2s6fZeORQyMK+IOKojFXYq7FXYq+Bv+covOLeY/wA3NThj&#xA;ctZ6GF0u3U0FGgJM/T/i9nFetAPliryTFX3X/wA4jeXv0V+T9tesFEutXdxekj7XBW+rIGNP+KOQ&#xA;+eKvacVdirsVdirsVdirsVdirsVdirsVdirsVSHz/pk+q+RPMmmW6NJcX+l3ttDGv2mea3dFA2O5&#xA;LYq/MrpirWKuxV2Kp/5B0m41jzx5f0u3/vbzUbWFSegDTKCxoDso3O2Kv0vvbO2vbOeyuoxLa3Mb&#xA;wzxGoDRyKVZTSh3BxV+ZnnbyxdeVvN2r+Xbqpl0y6ktw5BHNFb93IK02dCGHzxVJMVfT/wDziR+c&#xA;y2k6/l5rs9Le4Yt5fuJG2SVjVrXftIfij/yqj9oYq+tcVdirsVS7zJrUOh+XtT1qcAw6ZaT3cik0&#xA;BEEbSEV9+OKvzCu7qe7u5ruduc9xI0srnu7ksx+84qo4q/SL8mdNXTfyn8pWo6/oq1mcGgo88Qmc&#xA;beDSHFWZYq7FXYq7FXYq7FXYq7FXYq7FXYqwf83/AM09K/LfylJrV2gub2ZvQ0zT+XFppiK7nchE&#xA;G7NT26kYq+c7f/nNzzoLtWuPL2myWdRyijadJSvcCQu61/2GKvov8rPzi8ofmPpjXGjymHULdVN/&#xA;pU9BPCTtXbZ467B1+mh2xV8gf85IflLdeRvOs99aQn/DetSvcadKoPCKRzyktj1oUJqvivyOKvI8&#xA;VdirsVfTf/OH35UXdxq7fmDqkBjsbNXg0MOKerO4KSzKD+xGhKA92P8Ak4q+ucVfIv8Azmj5Ba21&#xA;nTPO9pFSC/QWGpsK7XEQJgdv9eIFf9hir5lxVdHJJFIskbFJEIZHUkMGBqCCOhGKvuT/AJxw/PeD&#xA;zzpKeX9cmVPNunx7sxp9dhTb1l/4sUf3i/7IbVoq9uxV2KvJf+cptcGlfkvrKA0l1J7exiP/ABkl&#xA;V3/5JRvir4FxV2Kv0y/Lf/yXflb/ALZFh/1DR4qyLFXYq7FXYq7FXYq7FXYq7FXYq7FXyF/zm/Je&#xA;/wCJfLMbM/1EWU7QoT8HqmUCQgfzcQlfoxV80Yqm3lXzTrflbX7PXdEuWtdRsnDxSDow6Mjj9pHG&#xA;zL3GKvvXyR5q8k/nZ+XROoWcNzHIBDrGkyGrW9wB1U/bUH7UbjenuDirxLzx/wA4V6tFPLc+S9Xi&#xA;ubUkslhqNYpVFdlWZFZH2/mVcVYLH/ziX+dTTem2m2sabfvmvIOH3Kxb/hcVerfl3/zhjp1jdRX/&#xA;AJ41JNSMTcv0VY81t2pSnqTuEkZevwqq/Ptir6Vs7O0srSGzs4Ut7W3RYoIIlCIiIKKqqNgAMVVc&#xA;VY3+Y3kqx86+S9U8t3lFF9CRbzEV9KdPihkGx+y4FadqjFX5ua1o+oaLq95pGpRGC/sJnt7mJv2X&#xA;jYqfo22OKoLFUXpWq6lpGpW2p6ZcyWl/aSCW2uYjxdHXoQcVfef5Dfnjp35kaKbe64WvmnT0X9I2&#xA;YICyr0+sQjuhP2h+yduhBKr1bFXzf/zm5qkkXk7y7pakCO71CS4cdybaEoPo/wBIxV8d4q7FX6W/&#xA;lbcLcfll5SnWlJNG080BrQ/VY6ivsdsVZPirsVdirsVdirsVdirsVdirsVdiryP/AJyY/LCfzz+X&#xA;7S6dGZdd0JmvLCJRVpUK0ngX3dAGXxZQO+Kvggimx64q1irOfyf/ADS1X8ufN8OsWtZtPmpBq1jX&#xA;ae3J3p4On2kPjt0JBVfoboOuaXr2jWes6VOtzp1/Es9tOh2KsO/gw6MDuDscVR2KuxV2KuxV2Kvl&#xA;v/nMD8ozNEn5iaRDV4glvr8SDcp9mG5oB+ztG/tx8CcVfJ+KuxVMvL3mHWfLus2us6NdPZ6lZuJI&#xA;J4zuD3BHRlYbMp2I2OKvv38lfzl0b8y/L31hAlpr1mAuq6YGrxbtLFX4jE/bwPwnxKrxf/nOW8jM&#xA;3k6zV/3iLqE0sdD9lzbqjV6fsPir5YxV2Kv0N/5x0uxd/kp5VlBrxtnhrt/umeSLt/qYq9HxV2Ku&#xA;xV2KuxV2KuxV2KuxV2KuxV2KvkP/AJyg/ICTTrm589+VbUtps7GXW9PhX/eeQ7tcoB/utzu4A+E7&#xA;/Z6KvmfFXYq98/5xf/PBfKGrf4U1+cL5a1OUG2uJGotncttyJOwil6P4GjfzYq+2AQQCDUHcEdKY&#xA;q7FXYq7FXYqo3tna31nPZXcSz2l1G8NxC4qrxyKVdWHcMpocVfn9+e/5O335ceaWjhV5vLmoM0mk&#xA;XjCtFrVoJG/35HX/AGQ3+SrzLFXYqyP8vvPWteR/Ndl5i0lyJrVwJ4CSEngY/vIZP8lx9x3G4xV7&#xA;R/zl7qtn5gh8h+Z9OcSaXq+n3D2rVHKoaJ2VgOhX1QD71xV86Yq7FX3P/wA4f6g11+TscDOWFhqF&#xA;1bqpJIUNwnoN9t5q/Tir23FXYq7FXYq7FXYq7FXYq7FXYq7FXYq06JIjI6h0cFWVhUEHYgg4q+TP&#xA;z+/5xcktDceafINsZLTeTUNAiBLxd2ltRvyTuY+q/s1GyqvmBlZWKsCGBoQdiCMVaxV9Q/8AONv/&#xA;ADkj9T+q+SfOt1/ofww6LrMzf3XZLe4Y/wC6+yOfs9D8NCqr6zxV2KuxV2KuxVIvO/krQfOflu78&#xA;v65AJrK6HwuKepFIPsSxMQeLp2P0HYnFXwL+bX5O+Z/y31s2moobnSpyTp2rRKfRmX+Vv5JF/aQ/&#xA;RUb4qwLFXYq9P8zC7vf+cfvJl5KWeLStY1SwiYg0RbhYrgIGPiyMf9rFXmGKuxV9ef8AOD+pSSeX&#xA;fNGmF6x215bXKpXobiJkJpXv9XH3Yq+mMVdirsVdirsVdirsVdirsVdirsVdirsVdirw786/+cY9&#xA;B86+vrfl309I80N8cuxW1uz39VVHwOf9+KN/2geoVfG3mzyb5n8o6tJpPmLT5dPvUrxWQfC6g05x&#xA;OKpIn+UpIxVJcVfRH5Cf85PXXloW/lnzpLJdeXlpFZ6nQyTWYrQK4FWkhH0so6VG2KvsTTtRsNSs&#xA;YL/T7iO7srlBJb3MLB43RujKw2OKojFXYq7FXYql+veX9F8waVPpOtWUV/p1yOM1tMvJT4EdwR2I&#xA;3HbFXyp+Zn/OG+s21zJfeQLhb6zc1/RF3Isc8de0cz8Y5F/1ypH+Viry/SP+cdPzj1LU4rD/AA3c&#xA;WfNqPdXfGKCMDqzSE7gf5NSewOKvof8ANb8nLPy//wA4zS+XdPJubjy+Y9VmnC7zTq5+tSkfsqIp&#xA;XI8FAHvir4vxV2KvqT/nBtLv655xdWUWYjsBKh+0ZC1x6ZG3QKHrv3GKvrDFXYq7FXYq7FXYq7FX&#xA;Yq7FXYq7FXYq7FXYq7FUl82eTPK/m3Sn0vzFp0Oo2bfZWUfGjfzRSLR4226qQcVfLf5k/wDOG2tW&#xA;Pq3/AJEvP0nairfom7ZY7lR1pHL8Mcn+y4n54q+eNb0DW9CvnsNZsJ9OvY/tW9zG0T/OjAVHvirN&#xA;fyq/PPzt+XNx6emzC90SR+dzo1ySYWJ2LRt9qJ/deu3IHFX2P+WH5/eQfzAjjt7O6/R2uEfvNGvG&#xA;CSk039FvszD/AFfi8VGKvScVdirsVdirsVdiqhfWVrf2NxY3cYmtLuJ4LiI1AeORSrqaUO6mmKvz&#xA;d/NDyFf+RPO2peXbsMY7eQvY3DCnrWrmsMgpUbr9rwao7YqxTFX3N/ziX5AvPLP5dSapqMTQ3/mK&#xA;YXYhccWW1jXjb8gRWrVd/wDVYYq9uxV2KuxV2KuxV2KuxVKPNXm3y75T0aXWfMF9HYadCQrTSVJZ&#xA;2+yiIoLOxpsqgnFXjS/85n/ladSFsbHVRZnb68YYeIatK+mJufCm9acv8nFXt+i61pWt6Va6tpN1&#xA;HeadeRiW2uYjVXU/iCDsQdwdjviqNxV2KuxV2KuxV2KuxV5352/MT8i5YTpXmvWNGv49+VpMY7zg&#xA;xFKlUEpRvfY4q8xm/JH/AJxl8+yN/hHXIrDUJNo7fT7xWJelam0ueclN+icR+OKsH8z/APOGPnzT&#xA;ZGuPLOrWmrxxsGiSTlZXNeuwJkiqp7+oMVTHyz+cX58/laVsPzB8vXuq6DCfTN1cKTLEqVB9K+QS&#xA;RSgdaOWr2YDFX0R+Xv5t+RPP1sZPLuorJdRrzuNOmHpXUQrSrRnqP8pCV98VZjirsVdirsVdirC/&#xA;zL/KLyX+YtjDb+YbdxcW1fquoWzCO5iDfaVXZXUqf5WUjFWFeTf+cS/yt8u6jDqNz9b1y5gfnFFf&#xA;vGbcMGqhMMaIHoKbOWB8MVe0gAAACgGwA6UxV2KuxV2KuxV2KuxV2Kvgn/nJ38xbzzX+ZV9p0c7N&#xA;ovl+RrGygDVjMsZ43EtBtyaQFa/ygYq8hxV9Sf8AOFXnm4F7rHkm6lrbtH+k9ORiBxdWWO4RK9eQ&#xA;ZGp/kk+OKp7/AM5P/n75i8rarH5O8qTfUr0wLPqepgBpUEteEMPIEKePxM/XcUpvir5/0H8/fze0&#xA;XUVvofM99eEGr29/K93A4OxUxzFgB/q0Phir6d/KP/nKvyx5umi0jzLHHoGuyELDIWJsrhiaAI7b&#xA;xMeyuaf5RO2KvdsVdiqD1nV9N0bSrvVtTnW20+xiae5nfYKiCpP9B3xV8LfnN/zkX5q8+XtxYabP&#xA;LpPlRSUhsImKSXCA/bumU/EW68K8R7n4iq8gxVtWZWDKSrKaqw2IIxV9DfkP/wA5PaxoV/beXvO1&#xA;3Jf+X5iIoNTmJe4s2JopdzVpIfEH4lG42HHFX2Yjq6h0IZGAKsDUEHoQcVY5/wAq28grrNvrcOg2&#xA;Vtq9q/qQ31tEtvKG/wApoeBfwo1dtsVZJirsVdirsVdirsVdirsVdirsVdirsVdirsVU7m4htreW&#xA;4nbhDCjSSuamioKsdvADFX5a3l1Ld3c91KayzyNLIf8AKdix/E4qo4q9I/5x21yTR/zl8szqRxur&#xA;k2MimtCt2jQDp4M4I98VT7/nLfT7m1/Oi/uJkKxX9paT27EbMiwiEkf7OJhirxnFXYq+nf8AnHH/&#xA;AJyTubO4tPJvnW79SwfjDpOsTsOUB6LDcO3WM9Fc/Z6H4fsqvrfFXzJ/zmp53ubTStG8nWsjIuol&#xA;r7UgNuUULBYEPiDJyYjxUYq+RsVdirsVdir7x/5xU87XPmb8q4La9k9S90GZtNLEks0CIrwFq+CP&#xA;wH+rir2PFXYq7FXYq7FXYq7FXYq7FXYq7FXYq7FXYq7FUJrFnLe6RfWcRVZbm3lhjLVChpEKitAT&#xA;SpxV+W2KuxVP/wAv7yWy8+eW7yIK0ttqtlNGGqVLR3CMK0INKjFX2F/zlX+U8/m/ynF5g0mEy675&#xA;fV3MKAlp7Nt5UUAfE0ZHNR4ch1IxV8PYq7FXYq+y/wDnFP8AOx/MWnDyR5guC+t6fGW0u6karXNq&#xA;g3jJPWSEfSU/1ScVef8A/ObUMo8/aFOVPpPpXBW7FkuZSw+gOMVfOmKuxV2KuxV9g/8AOEVlcJ5T&#xA;8yXrJS3nv4oon8Xhh5OPoEq4q+k8VdirsVdirsVdirsVdirsVdirsVdirsVdirsVdir8q8VdirLv&#xA;yhsxefmp5RgKh1OsWLOjDkCiXCOwIPYqpxV+k2Kvkj/nJn/nHhrGW688eT7UmxkLTa5pkQqYWJq1&#xA;zCgH92erqPs9R8P2VXzFirsVR+ha5qeg6zZazpcxt9QsJlntpl7OhqKjuD0I7jbFX1r+bFjD+d/5&#xA;H6Z5y8vRGTW9F5zy2CfE6txVb62UCpLDgsid2UDarYq+O8VdirsVV7Kyu768gsrOF7i7uZFit4Iw&#xA;Wd5HPFVUDqSTir9FvyZ8gf4D/LvS9AlC/pBVNxqbqahrqY8pBWpBCbICOoWuKs3xV2KuxV2KuxV2&#xA;KuxV2KuxV2KuxV2KuxV2KuxVD6jeLY6fdXrKXW1hkmZBsSI1LUH3Yq/LPFXYq9Y/5xc0dNS/OrQz&#xA;IvKKxW4vGHvFA4jP0SMpxV9+Yq06JIjI6h0cFWVhUEHYgg4q+Mv+clP+cej5Xmm83+VLY/4cmblq&#xA;Nkm/1KR2pyQf74Yn/YnbpSir55xV2Kvd/wDnEn8ym8ueej5ZvZeOk+ZCsUYY/DHfL/cMNj/ebxbd&#xA;SVr0xV6l+cn/ADiZY+Y7641/yXPDpeqTkyXWlzAraTOd2aNkBMTMe3EqT/Lir531f8gfzi0u7a2n&#xA;8q307L0ktE+tRkEVBDwGRcVRPl3/AJxz/OPXLoQx+XZ7COvx3Go0tI1FaVPqUdv9ipOKvqP8k/8A&#xA;nGvQvy/mTWtVmTV/M4UhJwtLe25CjegrfEW7eo1DToBvir2fFXyR/wA5WfnL5t0/zxH5U8t6tdaT&#xA;Bpluj6hJZytBJLcXKiUAvGQ3FIilN+pOKvCtE/ND8xNEvkvdM8x6hDOpB3uJJEahrR45CyOPZgcV&#xA;fUf5Mf8AOWGm+YZrfQvOyxaZrEhWO31RPgtLhjQASAn9y7H34H/J6Yq+icVdirsVdirsVdirsVdi&#xA;rsVdirsVdiqVebZVh8q6zK1SsdjcuwHWiwsdsVfmBirsVfTX/OEOgySeYPMuvkAR21pDYIT1LXMn&#xA;qtT5fVxX5jFX11irsVWXFvb3NvLb3ESTW8yNHNDIodHRxRlZTUEEGhBxV8J/85F/kbL+X+tjVdHi&#xA;d/KWpSUtmNW+qzEFjbu3WmxMZPUbbkVKrxrFV8M0sEyTQuY5YmDxyKaMrKagg+IOKv0k/KfzvF52&#xA;/L/R/MQZTc3MIS/RafBdRH05hQfZq6llH8pGKstxV2KuxV2Kvh7/AJy/8p3+l/mpJrsiE2PmC3hl&#xA;gmFePqWsSW0sdafaURo3yYYq8MxV2Kvpz/nHX/nJc6cLTyZ52uOWn7Q6VrcrbwDokFwT1j7K5Pwd&#xA;D8O6qvrgEEAg1B3BHSmKuxV2KuxV2KuxV2KuxV2KuxV2KsM/OfWF0j8qPNd8RUjTbiFN6fHcIYEP&#xA;0NIMVfm9irsVfef/ADil5UOhflDY3MqcbrXJpdSkqKMEekUIr3BiiVx/rYq9hxV2KuxVK/NHlnR/&#xA;M+gXug6xCJ9Ov4zFMnRhXdXQ78XRqMp7HFX50fmZ5A1XyF5xvvLmofH9XbnaXVKLPbvvFKo36j7Q&#xA;7NUdsVYtir6o/wCcJvOJEmveT55NmC6pYoTsCKQ3AFfGsR+/FX1ZirsVdirsVYd+a35Z6N+YnlK4&#xA;0LUKRXA/fabfAVe3uFHwuPFT9l17r70IVfnz508leYvJvmC40LXrY295bn4W3McqfsyRP+0jdj9+&#xA;+KpFirsVfSX/ADjv/wA5LNoa2vlDzpOX0aoi03WJGqbQdFimJ6w/yt+x/q/ZVfYEUsU0STQuskUi&#xA;h45EIZWVhUMpGxBGKrsVdirsVdirsVdirsVdirsVeH/85geYhpn5StpqyBZtbvYLbh3MUJNy5+Qa&#xA;JAfnir4bxVOvJfli880+bNJ8u2dRPqdzHb8+vBGP7yQ0B2RKsfYYq/TLTtPtNO0+10+zjEVpZwx2&#xA;9tEOixxKERfoUYqiMVdirsVdirw//nK/8s180eQ28wWMPLWvLga4BUfHJZne4jNBvwp6g8KNTrir&#xA;4bxV6F+QPmY+Xfze8t3rOqQT3QsbkuaJ6d4DASx2oFMgavtir9EsVdirsVdirsVYj+ZX5XeVPzC0&#xA;M6ZrsH72MMbHUIqC4tpG/ajY9jQclOx+7FXw9+a/5G+c/wAurx2voTfaG78bXWrdT6LA/ZWUb+lJ&#xA;/kt/sSeuKvOsVdir2v8AI/8A5yT1zyGYdE1sSar5T5USKtbizBO7W5b7SeMRNP5Su9VX2n5X82eX&#xA;fNWkRav5fv4tQ0+b7MsR3Vu6OpoyMO6sAcVTbFXYq7FXYq7FXYq7FXYq+Mv+cz/N36Q886b5ahkJ&#xA;g0O19W4TYAXN5Rz86QrGfpOKvnjFX1F/zhf+XZmvNR8+Xifu7blp2kgjrK4DXEo3r8KFUHY8m8MV&#xA;fWWKuxV2KuxV2KrZI45Y2ilUPG4KujAFWUihBB6g4q/OT85vIT+RvzE1bQlUixEn1jTGO/K0nq0W&#xA;9BUruh91OKsMt55LeeOeI8ZYmV428GU1B+/FX6haDqiatoenarGvFNQtobpFrWgmjEgFf9liqOxV&#xA;2KuxV2KuxVSu7O0vLWW0vII7m1nUpNBMqyRup6qysCCD4HFXzr+aH/OHmg6q0upeRrhdGvWqzaVO&#xA;Wazc0/3W/wAUkNT2+JfAKMVfLnnL8vfOXky/Nl5k0qawckiKVhyhlA7xTLyjf6D88VY7irIvJP5g&#xA;ebvJOqjUvLeoyWU5oJoxRoZVH7MsTVRx8xt2pir60/K//nLnyj5hEen+bkTy9qxoouqlrCUnbZzV&#xA;oflJ8P8Al4q96t7i3uYI7i3lSaCVQ8U0bB0ZTuGVhUEHFVTFXYq7FXYq7FVK7u7eztJru5kEVtbx&#xA;tLPK3RUQFmY+wAxV+ZnnfzNceaPN+seYZ9n1O7luFQ78EZj6ab9kSi/Riqj5U8s6r5o8x6f5f0qP&#xA;1b7UZlhiG9FruztToqKCzHwGKv0l8meVdN8p+VtM8uaaKWemwLCjHYu32pJG6/FI5Zz7nFU5xV2K&#xA;uxV2KuxV2Kvnz/nMP8u/015OtvN1mgN95eJS7oBV7KdgDv39KSjAeDNir4uxV+i/5C6lLqP5OeU7&#xA;iRubJYJb126WxMCjYDoIqYqz3FXYq7FXYq7FXYq7FUNqOmabqdnJZalaQ3tlMKS2tzGssTjrRkcM&#xA;p+kYq8M88/8AOHn5f600lz5cuJvLl42/pIPrNoTT/fTsHWp/lkoPDFXh/mf/AJxL/N3R2kextbfX&#xA;LZNxLZTKHI/4xT+k9fZa4q811nyD540RuOr6BqFh4NPazIp/1WK8T9BxVHeS/wA1PzA8lSg+XdZn&#xA;s4eVXsmIltmPQ8oJA0dfelffFXv3kz/nNk1SDzloW2wa+0s/ibeZv1SfRir3nyX+cH5cec1RdB1y&#xA;3mu3AP1CUmC6BIqV9GXizU7lKj3xVmOKuxV2KvIv+co/OqeWvyn1C2il4ahrxGm2wU0bhJvcNTrx&#xA;9EMp92GKvgjFX2X/AM4l/k82g6MfPGtQcdX1aPjpcMijlBZtv6u+4afr/qU/mOKvonFXYq7FXYq7&#xA;FXYq7FUNqmnWmp6bd6beJ6lnfQyW1zH/ADRyoUdfpVsVfmX5t8vXXlvzRqugXRrPpd1Las/ZvScq&#xA;HHsw3GKvub/nFq6S4/I7y6ocPJAbyKUfykXszKp/2DLir1fFXYq7FXYq7FXYq7FXYq7FXYq7FUr1&#xA;Lyr5Y1SRpNT0eyvpGpye5topiaAAVLq38oxViup/kH+TepOz3HlOwQtSotka1GwA2Fu0QHTtirEd&#xA;R/5xB/J+6lMlomo6Wa8kFpdk8COnE3CXB+84qnv/ACpG7/w1/h7/AB/5n+ocqU+s2vqehyp6PrfV&#xA;/X4+l8NPU41340+HFXp+KuxV8I/85UfmMnm38xX06xn9XR/LqtZW5Uko9wTW5kG9PtqEqOoXFUT/&#xA;AM41fkc/nfW18wa5Af8ACmlyAlGFBeXC7iEV6xr1kP8Ase+yr7lAAAAFANgB0pirsVdirsVdirsV&#xA;dirsVdir4b/5y/8ALw0z8221BFAj1uyguyQKD1I62zj50hVj88Ve+/8AOI3/AJJiz/5jLv8A5OYq&#xA;9nxV2KuxV2KuxV2KuxV2KuxV2KuxV2KuxV2KuxV2KvH/APnI/wDOWHyD5WbTdNlH+KdZjaOxVWo1&#xA;vC1Ve6NNxx6R+Lb/ALJxV8n/AJL/AJQ6z+ZfmcWqc4NFtGWTWNSpXghNRGhOxlkoeI+ZPTFX6BaF&#xA;oelaDo9po+k2yWmnWMaw21ug2VV/EkndmO5O53xVHYq7FXYq7FXYq7FXYq7FXYq+Vv8AnOPTYv8A&#xA;nUdTVaSn67bSvvuo9F4x1psS/bvir0P/AJxIjdfyXsGZSoe7u2QkUDD1StR47gjFXs2KuxV2KuxV&#xA;2KuxV2KuxV2KuxV2KuxV2KuxV2KsW/Mr8wtE8g+U7vzBqrVEQ9OztQaPcXDA+nEnzpUnsoJ7Yq+J&#xA;/LPlH8wPz1/MG71KdmEc8ofVNVdSbe0h/YiQE7kIOMcYNT32qcVfcfkfyVoHkvy3a+X9Dg9GythV&#xA;nNDJLI325ZWAHJ2PU/QNgBiqfYq7FXYq7FXYq7FXYq7FXYq7FXzn/wA5t6eX8i6BqFRS31Q29N6/&#xA;v7eR9u1P3GKvSf8AnHzSZdK/Jjypayrwd7Q3XH2vJXuVP0iYHFXoeKuxV2KuxV2KuxV2KuxV2Kux&#xA;V2KuxV2KuxV2KvnfWvyo85/nL53OtechceXvI2mO0Oi6K9FvZowaPK6fEITMVqxb4qUUD9rFXu3l&#xA;3y3oXlvSYdI0Kyi0/TrcUit4RQVPVmJqzMe7MSTiqZYq7FXYq7FXYq7FXYq7FXYq7FXYq8f/AOcp&#xA;PKWo+Z/y4s7HT4jLcJrNgQAKkeuzWan/AIO5XFXq+mafbabptpp1qCttZQx28CnqI4lCKPuGKonF&#xA;XYq7FXYq7FXYq7FXYq7FXYq7FXYq7FXYq7FX/9k=</xapGImg:image>
               </rdf:li>
            </rdf:Alt>
         </xap:Thumbnails>
         <xap:CreatorTool>Adobe Illustrator CS3</xap:CreatorTool>
         <xap:ModifyDate>2008-01-04T01:16:02-08:00</xap:ModifyDate>
         <xap:MetadataDate>2008-01-04T01:16:02-08:00</xap:MetadataDate>
      </rdf:Description>
      <rdf:Description rdf:about=""
            xmlns:xapTPg="http://ns.adobe.com/xap/1.0/t/pg/"
            xmlns:stDim="http://ns.adobe.com/xap/1.0/sType/Dimensions#"
            xmlns:xapG="http://ns.adobe.com/xap/1.0/g/">
         <xapTPg:MaxPageSize rdf:parseType="Resource">
            <stDim:w>612.000000</stDim:w>
            <stDim:h>792.000000</stDim:h>
            <stDim:unit>Points</stDim:unit>
         </xapTPg:MaxPageSize>
         <xapTPg:NPages>1</xapTPg:NPages>
         <xapTPg:HasVisibleTransparency>False</xapTPg:HasVisibleTransparency>
         <xapTPg:HasVisibleOverprint>False</xapTPg:HasVisibleOverprint>
         <xapTPg:PlateNames>
            <rdf:Seq>
               <rdf:li>Cyan</rdf:li>
               <rdf:li>Magenta</rdf:li>
               <rdf:li>Yellow</rdf:li>
               <rdf:li>Black</rdf:li>
            </rdf:Seq>
         </xapTPg:PlateNames>
         <xapTPg:SwatchGroups>
            <rdf:Seq>
               <rdf:li rdf:parseType="Resource">
                  <xapG:groupName>Default Swatch Group</xapG:groupName>
                  <xapG:groupType>0</xapG:groupType>
               </rdf:li>
            </rdf:Seq>
         </xapTPg:SwatchGroups>
      </rdf:Description>
      <rdf:Description rdf:about=""
            xmlns:dc="http://purl.org/dc/elements/1.1/">
         <dc:format>image/svg+xml</dc:format>
      </rdf:Description>
      <rdf:Description rdf:about=""
            xmlns:xapMM="http://ns.adobe.com/xap/1.0/mm/">
         <xapMM:InstanceID>uuid:E65F3CA4A5BADC11828F907C0EB444D3</xapMM:InstanceID>
      </rdf:Description>
   </rdf:RDF>
</x:xmpmeta>
                                                                                                    
                                                                                                    
                                                                                                    
                                                                                                    
                                                                                                    
                                                                                                    
                                                                                                    
                                                                                                    
                                                                                                    
                                                                                                    
                                                                                                    
                                                                                                    
                                                                                                    
                                                                                                    
                                                                                                    
                                                                                                    
                                                                                                    
                                                                                                    
                                                                                                    
                                                                                                    
                           
<?xpacket end="w"?>
	</metadata>
<g id="Layer_1" i:layer="yes" i:dimmedPercent="50" i:rgbTrio="#4F008000FFFF">
	<g>
		<g id="surface0" i:knockout="Off">
			<path fill="none" stroke="#000000" stroke-width="0.1" stroke-miterlimit="10" d="M164.537,21.007
				c0.761-2.74,0.605-5.98,2.771-8.092c1.654,9.901,1.098,20.089,3.385,29.909c1.482,7.295,4.879,13.968,7.886,20.714
				c3.388,6.813,6.076,14.029,10.623,20.203c6.901,10.553,16.097,19.273,24.538,28.555c4.875,5.141,10.148,11.155,9.909,18.714
				c0.417,3.853-2.035,7.656-5.605,9.049c-5.019,1.044-9.673-1.662-13.646-4.376c-11.319-7.422-19.006-18.916-25.677-30.422
				c-8.914-16.022-14.094-34.054-15.282-52.341C162.926,42.294,162.049,31.469,164.537,21.007z"/>
			<path d="M164.537,21.007c0.761-2.74,0.605-5.98,2.771-8.092c1.654,9.901,1.098,20.089,3.385,29.909
				c1.482,7.295,4.879,13.968,7.886,20.714c3.388,6.813,6.076,14.029,10.623,20.203c6.901,10.553,16.097,19.273,24.538,28.555
				c4.875,5.141,10.148,11.155,9.909,18.714c0.417,3.853-2.035,7.656-5.605,9.049c-5.019,1.044-9.673-1.662-13.646-4.376
				c-11.319-7.422-19.006-18.916-25.677-30.422c-8.914-16.022-14.094-34.054-15.282-52.341
				C162.926,42.294,162.049,31.469,164.537,21.007z"/>
			<path fill="none" stroke="#000000" stroke-width="0.1" stroke-miterlimit="10" d="M257.104,34.017
				c3.912-4.658,8.512-8.739,13.275-12.498l1.658-0.293c-5.402,9.752-12.531,18.594-16.459,29.123
				c-3.248,9.236-4.322,19.025-6.704,28.487c-3.106,15.916-0.687,32.184,1.278,48.083c0.984,6.891,2.135,14.467-1.275,20.892
				c-2.15,4.183-7.124,7.166-11.824,5.67c-4.028-1.813-5.902-6.138-7.645-9.911c-4.843-12.831-4.798-26.864-3.254-40.315
				c1.865-13.391,5.325-26.65,11.359-38.8C242.749,53.533,250.006,43.771,257.104,34.017z"/>
			<path d="M257.104,34.017c3.912-4.658,8.512-8.739,13.275-12.498l1.658-0.293c-5.402,9.752-12.531,18.594-16.459,29.123
				c-3.248,9.236-4.322,19.025-6.704,28.487c-3.106,15.916-0.687,32.184,1.278,48.083c0.984,6.891,2.135,14.467-1.275,20.892
				c-2.15,4.183-7.124,7.166-11.824,5.67c-4.028-1.813-5.902-6.138-7.645-9.911c-4.843-12.831-4.798-26.864-3.254-40.315
				c1.865-13.391,5.325-26.65,11.359-38.8C242.749,53.533,250.006,43.771,257.104,34.017z"/>
			<path fill="none" stroke="#000000" stroke-width="0.1" stroke-miterlimit="10" d="M135.647,61.95
				c8.73-1.118,18.066,3.619,21.886,11.646c5.977,10.473,0.496,25.138-10.631,29.51c-6.942,3.18-15.411,2-21.49-2.512
				c-6.942-5.376-10.589-15.178-7.565-23.628C120.259,69.047,127.451,63.044,135.647,61.95z"/>
			<path d="M135.647,61.95c8.73-1.118,18.066,3.619,21.886,11.646c5.977,10.473,0.496,25.138-10.631,29.51
				c-6.942,3.18-15.411,2-21.49-2.512c-6.942-5.376-10.589-15.178-7.565-23.628C120.259,69.047,127.451,63.044,135.647,61.95z"/>
			<path fill="none" stroke="#000000" stroke-width="0.1" stroke-miterlimit="10" d="M99.524,94.682
				c3.34-0.949,6.979-1.143,10.064,0.72c4.866,3.011,8.514,7.568,11.928,12.079c3.651,4.688,7.167,9.48,10.771,14.205
				c7.005,8.65,15.499,15.961,24.444,22.533c8.125,5.066,16.615,9.521,25.093,13.965c1.212,0.651,2.292,1.523,3.329,2.43
				c-1.667,0.01-3.31-0.269-4.898-0.744c-8.529-2.482-17.084-4.875-25.633-7.286c-10.975-2.87-20.924-8.628-30.29-14.877
				c-8.927-6.639-17.827-13.696-24.246-22.907c-2.495-3.785-4.93-8.129-4.34-12.832C95.954,99.107,97.943,96.908,99.524,94.682z"/>
			<path d="M99.524,94.682c3.34-0.949,6.979-1.143,10.064,0.72c4.866,3.011,8.514,7.568,11.928,12.079
				c3.651,4.688,7.167,9.48,10.771,14.205c7.005,8.65,15.499,15.961,24.444,22.533c8.125,5.066,16.615,9.521,25.093,13.965
				c1.212,0.651,2.292,1.523,3.329,2.43c-1.667,0.01-3.31-0.269-4.898-0.744c-8.529-2.482-17.084-4.875-25.633-7.286
				c-10.975-2.87-20.924-8.628-30.29-14.877c-8.927-6.639-17.827-13.696-24.246-22.907c-2.495-3.785-4.93-8.129-4.34-12.832
				C95.954,99.107,97.943,96.908,99.524,94.682z"/>
			<path fill="none" stroke="#000000" stroke-width="0.1" stroke-miterlimit="10" d="M59.753,163.71
				c1.983-5.286,8.169-9.312,13.751-7.137c5.004,2.942,6.288,9.108,7.411,14.358c2.749,11.77,0.516,23.893-1.8,35.527
				c-4.32,19.101-13.052,37.131-25.329,52.388c-5.345,6.541-10.783,13.046-16.904,18.883c-3.846,3.233-8.054,6.024-12.176,8.886
				l-1.702,0.049c4.812-6.72,10.126-13.064,15.073-19.682c3.708-5.243,6.262-11.197,8.608-17.141
				c3.188-10.56,7.726-20.797,9.166-31.813c1.798-8.563,1.233-17.342,1.734-26.016C57.838,182.594,55.798,172.645,59.753,163.71z"/>
			<path d="M59.753,163.71c1.983-5.286,8.169-9.312,13.751-7.137c5.004,2.942,6.288,9.108,7.411,14.358
				c2.749,11.77,0.516,23.893-1.8,35.527c-4.32,19.101-13.052,37.131-25.329,52.388c-5.345,6.541-10.783,13.046-16.904,18.883
				c-3.846,3.233-8.054,6.024-12.176,8.886l-1.702,0.049c4.812-6.72,10.126-13.064,15.073-19.682
				c3.708-5.243,6.262-11.197,8.608-17.141c3.188-10.56,7.726-20.797,9.166-31.813c1.798-8.563,1.233-17.342,1.734-26.016
				C57.838,182.594,55.798,172.645,59.753,163.71z"/>
			<path fill="none" stroke="#000000" stroke-width="0.1" stroke-miterlimit="10" d="M148.577,157.96
				c8.488-1.109,17.606,3.3,21.6,10.962c6.671,10.776,0.822,26.418-11.073,30.507c-7.004,2.897-15.361,1.39-21.249-3.261
				c-5.252-4.466-8.542-11.342-8.033-18.294C130.548,167.936,138.645,159.212,148.577,157.96z"/>
			<path d="M148.577,157.96c8.488-1.109,17.606,3.3,21.6,10.962c6.671,10.776,0.822,26.418-11.073,30.507
				c-7.004,2.897-15.361,1.39-21.249-3.261c-5.252-4.466-8.542-11.342-8.033-18.294C130.548,167.936,138.645,159.212,148.577,157.96
				z"/>
			<path fill="none" stroke="#000000" stroke-width="0.1" stroke-miterlimit="10" d="M85.88,167.991
				c0.18-5.726,7.057-9.133,12.002-6.581c12.897,5.506,22.081,16.899,29.162,28.624c11.063,17.676,17.394,38.212,18.42,59.024
				c0.333,4.289,0.144,8.595,0.379,12.889c0.368,8.924-1.257,17.836-3.93,26.316c-1.913-4.838-1.264-10.205-1.957-15.291
				c-0.497-10.799-3-21.508-7.743-31.241c-3.815-7.542-6.635-15.591-11.186-22.751c-7.552-12.121-18.016-21.979-27.563-32.478
				C88.932,181.493,84.854,175.056,85.88,167.991z"/>
			<path d="M85.88,167.991c0.18-5.726,7.057-9.133,12.002-6.581c12.897,5.506,22.081,16.899,29.162,28.624
				c11.063,17.676,17.394,38.212,18.42,59.024c0.333,4.289,0.144,8.595,0.379,12.889c0.368,8.924-1.257,17.836-3.93,26.316
				c-1.913-4.838-1.264-10.205-1.957-15.291c-0.497-10.799-3-21.508-7.743-31.241c-3.815-7.542-6.635-15.591-11.186-22.751
				c-7.552-12.121-18.016-21.979-27.563-32.478C88.932,181.493,84.854,175.056,85.88,167.991z"/>
			<path fill="none" stroke="#000000" stroke-width="0.1" stroke-miterlimit="10" d="M182.662,195.641
				c3.539-0.909,7.338-1.839,10.807-0.117c8.391,3.693,14.191,11.105,20.863,17.099c7.998,8.134,17.026,15.282,27.131,20.626
				c11.076,6.804,24.132,9.198,35.736,14.855c-3.148,1.143-6.468-0.053-9.664-0.353c-14.063-2.217-28.647-2.572-41.986-8.034
				c-13.155-5.414-26.092-12.014-36.611-21.747c-3.79-3.597-7.343-7.813-8.58-13.011
				C179.672,201.637,181.188,198.506,182.662,195.641z"/>
			<path d="M182.662,195.641c3.539-0.909,7.338-1.839,10.807-0.117c8.391,3.693,14.191,11.105,20.863,17.099
				c7.998,8.134,17.026,15.282,27.131,20.626c11.076,6.804,24.132,9.198,35.736,14.855c-3.148,1.143-6.468-0.053-9.664-0.353
				c-14.063-2.217-28.647-2.572-41.986-8.034c-13.155-5.414-26.092-12.014-36.611-21.747c-3.79-3.597-7.343-7.813-8.58-13.011
				C179.672,201.637,181.188,198.506,182.662,195.641z"/>
		</g>
	</g>
</g>
</svg>
